<svg id="visual" viewBox="0 0 900 600" width="900" height="600" xmlns="http://www.w3.org/2000/svg" xmlns:xlink="http://www.w3.org/1999/xlink" version="1.1"><rect x="0" y="0" width="900" height="600" fill="#fff"></rect><defs><linearGradient id="grad1_0" x1="33.3%" y1="100%" x2="100%" y2="0%"><stop offset="20%" stop-color="#ffffff" stop-opacity="1"></stop><stop offset="80%" stop-color="#ffffff" stop-opacity="1"></stop></linearGradient></defs><defs><linearGradient id="grad2_0" x1="0%" y1="100%" x2="66.7%" y2="0%"><stop offset="20%" stop-color="#ffffff" stop-opacity="1"></stop><stop offset="80%" stop-color="#ffffff" stop-opacity="1"></stop></linearGradient></defs><g transform="translate(900, 600)"><path d="M-513.8 0C-520 -79.5 -526.3 -159.1 -474.7 -196.6C-423.1 -234.2 -313.6 -229.8 -256.7 -256.7C-199.8 -283.6 -195.5 -341.8 -161.5 -389.9C-127.5 -437.9 -63.7 -475.9 0 -513.8L0 0Z" fill="#C1F377"></path></g><g transform="translate(0, 0)"><path d="M513.8 0C458.8 58.9 403.8 117.7 351.1 145.4C298.3 173.1 247.7 169.6 230.5 230.5C213.3 291.4 229.5 416.7 196.6 474.7C163.8 532.6 81.9 523.2 0 513.8L0 0Z" fill="#C1F377"></path></g></svg>